<svg width="33" height="32" viewBox="0 0 33 32" fill="none" xmlns="http://www.w3.org/2000/svg">
<g id="circle-exclamation" clip-path="url(#clip0_99_1697)">
<path id="Secondary" opacity="0.4" d="M16.5 32C20.7435 32 24.8131 30.3143 27.8137 27.3137C30.8143 24.3131 32.5 20.2435 32.5 16C32.5 11.7565 30.8143 7.68687 27.8137 4.68629C24.8131 1.68571 20.7435 0 16.5 0C12.2565 0 8.18687 1.68571 5.18629 4.68629C2.18571 7.68687 0.5 11.7565 0.5 16C0.5 20.2435 2.18571 24.3131 5.18629 27.3137C8.18687 30.3143 12.2565 32 16.5 32ZM16.5 8C17.3312 8 18 8.66875 18 9.5V16.5C18 17.3312 17.3312 18 16.5 18C15.6687 18 15 17.3312 15 16.5V9.5C15 8.66875 15.6687 8 16.5 8ZM14.5 22C14.5 21.4696 14.7107 20.9609 15.0858 20.5858C15.4609 20.2107 15.9696 20 16.5 20C17.0304 20 17.5391 20.2107 17.9142 20.5858C18.2893 20.9609 18.5 21.4696 18.5 22C18.5 22.5304 18.2893 23.0391 17.9142 23.4142C17.5391 23.7893 17.0304 24 16.5 24C15.9696 24 15.4609 23.7893 15.0858 23.4142C14.7107 23.0391 14.5 22.5304 14.5 22Z" fill="#F32F5E"/>
<path id="Primary" d="M18 9.5C18 8.66875 17.3312 8 16.5 8C15.6688 8 15 8.66875 15 9.5V16.5C15 17.3313 15.6688 18 16.5 18C17.3312 18 18 17.3313 18 16.5V9.5ZM16.5 24C17.0304 24 17.5391 23.7893 17.9142 23.4142C18.2893 23.0391 18.5 22.5304 18.5 22C18.5 21.4696 18.2893 20.9609 17.9142 20.5858C17.5391 20.2107 17.0304 20 16.5 20C15.9696 20 15.4609 20.2107 15.0858 20.5858C14.7107 20.9609 14.5 21.4696 14.5 22C14.5 22.5304 14.7107 23.0391 15.0858 23.4142C15.4609 23.7893 15.9696 24 16.5 24Z" fill="#F32F5E"/>
</g>
<defs>
<clipPath id="clip0_99_1697">
<rect width="32" height="32" fill="white" transform="translate(0.5)"/>
</clipPath>
</defs>
</svg>
