<svg width="33" height="32" viewBox="0 0 33 32" fill="none" xmlns="http://www.w3.org/2000/svg">
<g clip-path="url(#clip0_145_2334)">
<path opacity="0.4" d="M16.5 0C18.8 0 20.8 1.29375 21.8062 3.19375C23.8625 2.5625 26.1875 3.0625 27.8125 4.6875C29.4375 6.3125 29.9375 8.64375 29.3062 10.6938C31.2062 11.7 32.5 13.7 32.5 16C32.5 18.3 31.2062 20.3 29.3062 21.3062C29.9375 23.3625 29.4375 25.6875 27.8125 27.3125C26.1875 28.9375 23.8562 29.4375 21.8062 28.8062C20.8 30.7062 18.8 32 16.5 32C14.2 32 12.2 30.7062 11.1938 28.8062C9.1375 29.4375 6.8125 28.9375 5.1875 27.3125C3.5625 25.6875 3.0625 23.3562 3.69375 21.3062C1.79375 20.3 0.5 18.3 0.5 16C0.5 13.7 1.79375 11.7 3.69375 10.6938C3.0625 8.6375 3.5625 6.3125 5.1875 4.6875C6.8125 3.0625 9.14375 2.5625 11.1938 3.19375C12.2 1.29375 14.2 0 16.5 0ZM23.5625 13.0625C24.15 12.475 24.15 11.525 23.5625 10.9438C22.975 10.3625 22.025 10.3563 21.4438 10.9438L14.5063 17.8813L11.5688 14.9438C10.9813 14.3563 10.0312 14.3563 9.45 14.9438C8.86875 15.5312 8.8625 16.4813 9.45 17.0625L13.45 21.0625C14.0375 21.65 14.9875 21.65 15.5688 21.0625L23.5625 13.0625Z" fill="#0BA047"/>
<path d="M23.5623 10.9375C24.1498 11.525 24.1498 12.475 23.5623 13.0563L15.5623 21.0625C14.9748 21.65 14.0248 21.65 13.4436 21.0625L9.44355 17.0625C8.85605 16.475 8.85605 15.525 9.44355 14.9438C10.0311 14.3625 10.9811 14.3563 11.5623 14.9438L14.4998 17.8813L21.4373 10.9375C22.0248 10.35 22.9748 10.35 23.5561 10.9375H23.5623Z" fill="#0BA047"/>
</g>
<defs>
<clipPath id="clip0_145_2334">
<rect width="32" height="32" fill="white" transform="translate(0.5)"/>
</clipPath>
</defs>
</svg>
